# xmcd CD database file
#
# Track frame offsets:
#	150
#	19752
#	35874
#	53796
#	68818
#	81959
#	97751
#	112473
#	129345
#	145427
#	162719
#	175091
#	190293
#	211704
#
# Disc length: 3271 seconds
#
# Revision: 0
# Processed by: cddbd v1.5.2PL0 Copyright (c) Steve Scherf et al.
# Submitted via: CDex 1.51
#
DISCID=cb0cc50e
DTITLE=Matt Stillwell - Right On Time
DYEAR=2014
DGENRE=Country
TTITLE0=Right On Time
TTITLE1=Cold Beer
TTITLE2=Smoke' Em If You Got' Em
TTITLE3=Ignition
TTITLE4=Do What I Do
TTITLE5=Enough
TTITLE6=I# m A Sinner
TTITLE7=The Way You Make Me Feel
TTITLE8=Make Love For A Livin'
TTITLE9=Rough Draft
TTITLE10=Sunshine
TTITLE11=Remember We' re You Come From
TTITLE12=Dirt Road Dancing (Live)
TTITLE13=Shine (Live)
EXTD=YEAR: 2014
EXTT0=
EXTT1=
EXTT2=
EXTT3=
EXTT4=
EXTT5=
EXTT6=
EXTT7=
EXTT8=
EXTT9=
EXTT10=
EXTT11=
EXTT12=
EXTT13=
PLAYORDER=
